PathFileType	4	(X/Y/Z)	E:\Qualisys_Data\Carbon_Farble_Plate\Data\Amateur_Runner\S1\T1\S1T1V23_c3d.trc
DataRate	CameraRate	NumFrames	NumMarkers	Units	OrigDataRate	OrigDataStartFrame	OrigNumFrames
200.000000	200.000000	4	39	mm	200.000000	204	273
Frame#	Time	LSHO			RSHO			LICST			RICST			LASIS			LHEEL			RASIS			LTROC			RTROC			SACR			LTH1			LSK4			LTH2			LTH3			RHM5			LSK2			LTH4			RTH1			LTOE			RTH2			RTH3			RTH4			LLEP			RLEP			LSK1			LSK3			RSK1			LHM5			RSK2			LFT1			RSK3			RSK4			LLME			RLME			RTOE			RHEEL			RFT1			RFT2			LFT2			
		X1	Y1	Z1	X2	Y2	Z2	X3	Y3	Z3	X4	Y4	Z4	X5	Y5	Z5	X6	Y6	Z6	X7	Y7	Z7	X8	Y8	Z8	X9	Y9	Z9	X10	Y10	Z10	X11	Y11	Z11	X12	Y12	Z12	X13	Y13	Z13	X14	Y14	Z14	X15	Y15	Z15	X16	Y16	Z16	X17	Y17	Z17	X18	Y18	Z18	X19	Y19	Z19	X20	Y20	Z20	X21	Y21	Z21	X22	Y22	Z22	X23	Y23	Z23	X24	Y24	Z24	X25	Y25	Z25	X26	Y26	Z26	X27	Y27	Z27	X28	Y28	Z28	X29	Y29	Z29	X30	Y30	Z30	X31	Y31	Z31	X32	Y32	Z32	X33	Y33	Z33	X34	Y34	Z34	X35	Y35	Z35	X36	Y36	Z36	X37	Y37	Z37	X38	Y38	Z38	X39	Y39	Z39	

205	1.02	1509.8740234375	1492.808471679688	-542.7769165039062	1561.574462890625	1507.923217773438	-224.8204956054688	1530.879150390625	1036.118774414062	-488.6935729980469	1542.387817382812	1046.288452148438	-190.8212738037109	1577.078125	999.1292114257812	-462.1867065429688	1691.059204101562	70.09422302246094	-381.3243103027344	1578.051513671875	996.4158325195312	-200.7831878662109	1480.873168945312	910.363525390625	-507.9876708984375	1459.045288085938	916.8887939453124	-162.5487060546875	1419.258056640625	1054.768798828125	-332.6431579589844	1645.090942382812	793.7179565429688	-487.3227233886719	1656.378295898438	231.4264068603516	-420.691650390625	1569.991943359375	761.4498901367188	-514.9552001953125	1675.875854492188	695.7894897460938	-466.6561889648438	963.7406616210938	305.4837951660156	-205.1514434814453	1643.282958984375	327.1623840332031	-461.8812561035156	1597.734130859375	667.3178100585938	-488.9856872558594	1557.391723632812	765.8781127929688	-194.8130950927734	1926.12255859375	165.2929382324219	-403.9663696289062	1484.787109375	776.8792114257812	-165.8212738037109	1539.277709960938	666.67333984375	-200.7981719970703	1462.497680664062	680.2293701171875	-181.0887451171875	1680.248779296875	541.4259643554688	-446.6200256347656	1440.219604492188	512.3046264648438	-214.1122283935547	1727.454345703125	335.1343994140625	-452.1475830078125	1733.538208007812	234.6527862548828	-445.031982421875	1260.903686523438	457.7532043457031	-204.0796813964844	1873.015625	113.9575653076172	-455.4920654296875	1242.896484375	536.3590698242188	-220.0335540771484	1712.465698242188	54.79068756103516	-352.0401916503906	1165.028076171875	431.8650207519531	-217.6824798583984	1148.248413085938	507.3798828125	-243.5660247802734	1729.38330078125	106.6543731689453	-434.5575866699219	1032.5947265625	435.6173400878906	-223.2109069824219	996.0350341796876	236.4671630859375	-276.9237060546875	995.3372802734376	491.789794921875	-271.0333251953125	969.626708984375	477.850830078125	-304.6662292480469	967.8555297851562	487.0814208984375	-245.8430023193359	1705.78076171875	42.5434455871582	-404.1102294921875
206	1.025	1532.30908203125	1487.781494140625	-544.062744140625	1582.214721679688	1503.99072265625	-225.5183563232422	1549.694946289062	1032.700073242188	-489.3756408691406	1563.30078125	1042.247314453125	-190.9316864013672	1600.404418945312	996.7268676757812	-462.3919067382812	1696.913452148438	69.13327026367188	-381.6730651855469	1598.9755859375	992.4844970703124	-201.1087646484375	1500.146118164062	907.2672119140624	-507.5007019042969	1480.836791992188	912.0186157226562	-162.6180114746094	1439.463989257812	1050.832275390625	-331.9770202636719	1665.767700195312	791.439208984375	-488.1293029785156	1667.858276367188	227.6715698242188	-420.2679138183594	1590.238403320312	758.4509887695312	-514.1473999023438	1697.534790039062	694.0739135742188	-466.9508056640625	993.399169921875	310.2856750488281	-204.1732940673828	1657.145263671875	322.8906860351562	-461.0945129394531	1618.571655273438	664.883544921875	-487.584716796875	1581.931884765625	762.2903442382812	-194.384765625	1935.755004882812	150.7403717041016	-401.8444519042969	1508.0517578125	772.2511596679688	-165.2601623535156	1565.9140625	662.863525390625	-199.9640960693359	1488.406372070312	675.3963623046875	-181.0102844238281	1698.594970703125	537.218505859375	-447.3313293457031	1470.882690429688	506.7537536621094	-213.1496276855469	1741.376831054688	329.1566162109375	-451.6806640625	1745.216064453125	228.5776824951172	-444.3387756347656	1291.511596679688	456.3516235351562	-202.8222045898438	1880.309692382812	103.0977478027344	-453.4380493164062	1275.3232421875	535.116943359375	-220.3069152832031	1715.942138671875	54.70370864868164	-351.5892639160156	1194.777221679688	432.0172729492188	-218.3547973632812	1180.047729492188	508.1197814941406	-243.6075744628906	1737.273681640625	102.5655975341797	-433.6541748046875	1063.133911132812	439.7752990722656	-222.9162292480469	1024.096069335938	240.7257080078125	-276.5475463867188	1026.28076171875	496.3406372070312	-271.3980102539062	1000.679992675781	482.1899108886719	-304.4258422851562	999.0135498046876	491.6237487792969	-246.3794708251953	1709.619873046875	40.67599105834961	-403.126953125
207	1.03	1554.700561523438	1482.940185546875	-545.0689086914062	1602.245849609375	1499.97900390625	-226.2124633789062	1569.421630859375	1029.716430664062	-489.3923034667969	1583.996215820312	1037.93701171875	-191.4913024902344	1621.474487304688	994.1621704101562	-465.0414428710938	1702.20068359375	68.51441192626953	-380.7669982910156	1619.938842773438	988.345947265625	-201.9370880126953	1519.156860351562	903.5075073242188	-507.6178588867188	1502.55712890625	906.8120727539062	-163.4263000488281	1459.522094726562	1046.5263671875	-331.8272094726562	1686.396850585938	788.9718627929688	-489.0103454589844	1678.820434570312	223.1561126708984	-419.5044250488281	1610.510131835938	755.4457397460938	-513.0122680664062	1718.820922851562	692.0802001953125	-467.5895690917969	1023.76123046875	314.5856628417969	-203.4259643554688	1671.110229492188	319.2672119140625	-460.3782348632812	1639.623291015625	662.1041870117188	-486.2765808105469	1606.475708007812	759.14404296875	-193.7072601318359	1944.968627929688	135.7610931396484	-400.9547119140625	1532.25927734375	767.6221313476562	-165.6555786132812	1592.657104492188	658.9170532226562	-198.9671325683594	1514.9052734375	669.8169555664062	-180.861572265625	1717.310791015625	533.0814208984375	-448.1900634765625	1501.633666992188	501.8674621582031	-212.034912109375	1755.017822265625	323.1685791015625	-451.0860290527344	1756.237548828125	222.5242919921875	-443.455322265625	1322.73486328125	454.9603881835938	-202.2140960693359	1887.557739257812	90.71062469482422	-451.4691467285156	1308.547119140625	533.3096313476562	-220.6343383789062	1720.447875976562	51.97016143798828	-350.9000854492188	1225.663330078125	432.5048522949219	-217.8899841308594	1212.820068359375	508.8323059082031	-243.7898559570312	1744.184448242188	97.27515411376952	-432.6919555664062	1094.192749023438	443.0874938964844	-223.4704742431641	1054.77978515625	244.4369812011719	-274.7521362304688	1057.821655273438	500.0556640625	-271.4703063964844	1032.454833984375	485.7872314453125	-304.9322204589844	1030.317626953125	495.6274719238281	-246.5798034667969	1713.504516601562	40.09523773193359	-403.24755859375
208	1.035	1577.325927734375	1477.661376953125	-546.3993530273438	1622.793090820312	1495.676147460938	-226.7776794433594	1588.323120117188	1025.66650390625	-490.128662109375	1604.716430664062	1033.739135742188	-191.2938385009766	1640.380981445312	990.6136474609376	-465.908203125	1707.059204101562	68.08586883544922	-380.9563293457031	1640.474243164062	984.1533203125	-202.6809844970703	1538.68359375	899.7560424804688	-508.2842407226562	1524.072998046875	901.6000366210938	-164.0137023925781	1479.226806640625	1042.314453125	-331.6376953125	1706.096313476562	785.4520263671875	-489.321044921875	1689.296875	219.8905181884766	-419.0103759765625	1630.627075195312	751.7586669921875	-512.5371704101562	1739.4833984375	689.502685546875	-468.6628723144531	1054.781127929688	318.5895080566406	-202.0107116699219	1684.758422851562	315.3335571289062	-459.7855224609375	1660.493530273438	658.3298950195312	-484.8734436035156	1631.105834960938	755.7442626953125	-193.2366333007812	1953.725708007812	120.4311065673828	-399.013671875	1556.30029296875	762.4617309570312	-166.1343688964844	1619.78466796875	654.9898071289062	-197.6159973144531	1541.352905273438	664.060791015625	-181.1070556640625	1735.652709960938	528.1876220703125	-448.8171997070312	1532.89599609375	497.1319885253906	-210.7986602783203	1768.680419921875	317.2874755859375	-450.045654296875	1766.714111328125	216.6628570556641	-442.08154296875	1354.950439453125	453.3294067382812	-201.6816864013672	1894.09716796875	78.75816345214844	-449.5126647949219	1341.730346679688	531.9528198242188	-220.9515686035156	1724.863159179688	49.72225570678711	-349.9345703125	1257.138793945312	433.2716064453125	-216.7790222167969	1245.7177734375	508.8901977539062	-243.9842224121094	1750.9912109375	92.64007568359376	-431.7889404296875	1125.890991210938	446.15087890625	-223.1365661621094	1085.539672851562	247.5586853027344	-272.9936828613281	1090.034057617188	503.0763549804688	-271.8617553710938	1065.139404296875	488.9606628417969	-305.1906127929688	1062.367553710938	499.0958862304688	-246.8314514160156	1717.0146484375	39.10992050170898	-403.26611328125
